<?xml version="1.0" encoding="UTF-8"?>
<svg version="1.1" viewBox="0 0 1388 1292" width="347" height="323" xmlns="http://www.w3.org/2000/svg">
<path transform="translate(538,102)" d="m0 0h11l11 4 24 13 21 12 45 25 52 29 25 14 23 13 29 16 18 10 25 14 14 8 4 1 11-16 13-16 9-10 7-8 7-7 8-7 11-9 19-14 20-12 23-12 23-9 19-6 26-6 22-3 11-1h40l27 3 25 5 23 7 19 7 18 8 20 11 15 10 19 14 11 10 8 7 15 15 9 11 11 14 10 15 10 17 8 15 10 24 9 29 5 25 3 22 1 13v29l-4 33-6 29-6 19-8 21-12 25-11 18-13 19-12 14-12 13-14 14-11 9-14 11-15 10-21 12-23 11-28 10-29 7-27 4-13 1h-39l-1 229-3 20-6 20-7 16-10 16-11 14-14 14-15 11-21 12-27 14-19 10-28 15-25 13-22 12-33 17-19 10-28 15-31 16-22 12-29 15-19 10-18 10-16 8-68 36-12 4h-11l-12-4-29-15-19-10-60-31-19-10-27-14-23-12-19-10-33-17-19-10-27-14-23-12-31-16-19-10-27-14-46-24-14-9-14-11-13-13-10-13-9-15-8-18-5-16-3-17-1-10v-534l3-11 6-9 10-8 26-15 27-16 89-52 27-16 26-15 22-13 26-15 22-13 29-17 111-65 53-31 14-7zm4 74-28 16-58 34-25 15 3 3 26 14 21 12 25 14 29 16 23 13 56 31 21 12 29 16 21 12 22 12 23 13 29 16 18 10 16 9h1v-34l2-23 4-25 5-21 4-13-1-5-46-26-50-28-29-16-18-10-43-24-50-28-23-13-3-2zm532 17-25 3-25 6-20 7-25 12-18 11-13 10-11 9-18 18-9 11-11 15-12 20-9 20-7 19-5 20-3 17-1 11v39l3 21 4 18 6 19 9 21 9 17 10 15 10 13 11 12 14 14 11 9 18 13 18 10 19 9 27 9 25 5 21 2h27l24-3 26-6 20-7 25-12 21-13 14-11 12-11 7-6 7-8 2-4h2l14-19 8-13 11-21 9-24 6-22 4-26 1-25-2-25-4-22-6-22-7-18-8-17-12-20-13-17-18-20-8-7-15-12-15-10-16-9-19-9-24-8-16-4-19-3-14-1zm-714 89-13 8-24 14-7 4 1 3 12 6 23 13 27 15 23 13 29 16 23 13 29 16 18 10 21 12 29 16 52 29 25 14 23 13 54 30 25 14 29 16 22 13 5-1 29-15 7-4-1-6-4-8-5-4-99-55-21-12-29-16-18-10-25-14-23-13-29-16-27-15-23-13-27-15-50-28-29-16-23-13-18-10-7-4zm-114 67-24 14-26 15-22 13-41 24-22 13-1 3v23l2 4 43 22 18 10 16 8 39 20 22 12 28 14 19 10 27 14 19 10 29 15 19 10 33 17 19 10 27 14 19 10 35 18 19 10 13 7 5-1 14-8 16-8 23-12 22-12 33-17 22-12 19-10-4-4-18-10-23-13-24-13-21-12-29-16-23-13-27-15-52-29-95-53-16-9-27-15-23-13-27-15-43-24zm-136 185v372l1 38 4 15 8 16 7 9 4 5 10 8 21 12 22 11 19 10 27 14 23 12 19 10 35 18 19 10 31 16 19 10 25 13 19 10 37 19 19 10 27 14 12 7h2v-446l-8-5-37-19-19-10-33-17-19-10-29-15-42-22-31-16-19-10-29-15-19-10-56-29-25-13-42-22zm749 73-29 15-14 8v82l7-3 23-12 14-8 1-1 1-73-1-8zm-114 60-27 14-22 12-37 19-22 12-29 15-19 10-1 6v441l6-2 68-36 23-12 22-12 29-15 53-28 23-12 22-12 29-15 53-28 23-12 20-11 11-8 7-6 9-12 7-14 4-15 1-7v-237l-36-15-26-14-4-3-3 1v42l-3 10-6 9-8 6-34 18-23 12-22 12-37 19-10 3h-9l-10-3-6-4-8-9-4-11-1-108z" fill="#060606"/>
<path transform="translate(1094,300)" d="m0 0h12l10 3 9 7 13 13 7 8 11 12 14 15 9 10 15 16 12 13 11 12 6 8 4 9 1 4v9l-3 10-6 9-97 97-12 6-4 1h-11l-10-3-8-6-6-7-4-9-1-5v-9l4-11 6-8 4-5 4-4h2l2-4h2l2-4 12-12h2v-2l6-6-154-1-11-4-8-6-7-11-2-6v-15l6-12 6-7 12-6 3-1 154-1-9-10-7-8-9-10-7-7-9-12-4-11v-10l4-11 4-6 7-7 9-4z" fill="#070707"/>
<path transform="translate(327,872)" d="m0 0h9l13 4 37 19 19 10 27 14 19 10 16 9 8 8 4 8 2 7v10l-3 10-6 8-5 5-10 5-6 1h-9l-10-3-26-13-19-10-25-13-19-10-27-14-9-7-6-9-3-8v-14l5-12 10-10 9-4z" fill="#090909"/>
<path transform="translate(328,758)" d="m0 0h8l12 4 26 13 19 10 27 14 40 21 10 7 6 7 4 9 1 4v10l-3 10-8 11-7 5-9 3h-14l-13-5-33-17-65-34-16-9-8-7-7-14v-15l4-10 9-10 12-6z" fill="#090909"/>
<path transform="translate(896,196)" d="m0 0 2 1-30 30v-3l15-16z" fill="#aaa"/>
<path transform="translate(945,403)" d="m0 0 2 1-11 11v-3l6-7z" fill="#A4A4A4"/>
</svg>
