<?xml version="1.0" encoding="UTF-8"?>
<svg version="1.1" viewBox="0 0 2048 2048" width="512" height="512" xmlns="http://www.w3.org/2000/svg">
<path transform="translate(610)" d="m0 0h833v1l48 8 40 10 29 10 29 12 25 12 23 13 19 12 20 14 13 10 11 9 14 12 7 7 8 7 11 11 7 8 11 12 9 11 16 21 14 21 15 25 15 29 11 25 11 30 7 24 6 24 6 34 3 26 1 14 1 31v1057l-1 54-2 26-4 29-7 34-7 25-9 27-9 22-11 24-12 23-12 20-8 12-12 17-11 14-9 11-8 10h-2l-2 4-9 9-7 8-13 12-12 11-11 9-18 14-20 14-21 13-18 10-15 8-29 13-18 7-31 10-28 7-31 6-32 5h-829l-3-2-36-6-24-5-29-8-34-12-25-11-16-8-21-11-23-14-20-14-13-10-16-13-10-9-8-7-28-28-9-11-8-9-13-17-13-18-13-21-12-21-14-28-11-27-12-36-7-26-6-32-4-32-2-35v-1109l2-34 4-31 6-31 8-30 10-30 10-24 7-16 10-19 10-18 10-16 13-19 9-12 13-16 9-11 7-7 7-8 18-18 8-7 11-10 26-20 20-14 18-11 23-13 29-14 25-10 33-11 27-7 36-7zm47 160-26 1-27 3-24 5-25 7-21 8-24 11-23 13-16 11-14 11-11 9-4 3v2l-4 2-18 18-9 11-10 12-9 13-10 15-10 18-11 23-9 24-7 25-5 25-3 29-1 43v1059l1 30 4 33 6 27 7 23 11 27 11 22 13 21 12 17 11 13 9 11 17 17 8 7 16 13 18 13 22 13 19 10 30 12 22 7 29 6 26 3 13 1h769l30-3 26-5 27-8 24-9 29-14 23-14 18-13 13-11 10-9 12-11 7-8 11-12 14-19 11-17 9-16 8-16 9-21 8-24 6-24 4-25 2-21v-1127l-3-28-5-26-7-25-10-27-12-25-13-22-11-16-11-14-13-15-21-21-11-9-17-13-15-10-19-11-22-11-20-8-22-7-25-6-27-4-38-2z"/>
<path transform="translate(668,311)" d="m0 0 17 1 13 3 16 8 11 8 10 10 9 14 5 12 3 13 3 31 4 18 8 19 10 16 12 13 10 9 14 9 19 9 16 4 13 2h325l19-3 15-5 16-8 11-7 13-11 9-10 7-10 7-12 7-19 4-21 2-24 4-17 8-16 8-10 8-8 14-9 12-5 14-3h23l15 3 17 8 13 10 8 9 7 11 6 14 3 15v33l-2 18-5 25-6 21-8 22-12 25-14 23-14 19-12 13-7 8-11 11-11 9-17 13-19 12-18 10-21 9-27 9-26 6-22 3-13 1h-336l-23-2-26-5-27-8-20-8-17-8-19-11-16-11-16-13-10-9-7-6-7-8-8-8-11-14-11-15-13-22-12-25-9-25-6-23-4-24-2-20v-20l2-14 4-12 5-10 8-11 8-9 14-10 11-5 9-3z"/>
<path transform="translate(955,855)" d="m0 0h10l14 2 12 4 13 7 10 8 9 9 9 14 5 12 3 12v26l-4 15-8 16-9 11-4 5h-2l-2 4-66 66-5 6-4 4h-2l-2 4-78 78-13 10-15 9-17 8-19 6-20 4-10 1h-25l-21-3-18-5-16-6-15-8-12-8-11-9-63-63v-2h-2l-7-8-16-16-7-10-8-16-3-12-1-8v-11l3-18 6-15 9-13 9-10 14-10 13-6 13-3 9-1h10l14 2 12 4 13 7 10 8 13 12 11 12 39 39 5 6 7 6 3 3 2 1 2-4 53-53 2-3h2l2-4 64-64 1-2h2v-2h2l2-4h2l2-4 19-19 12-9 14-7 9-3z"/>
<path transform="translate(955,1267)" d="m0 0h9l15 2 12 4 13 7 10 8 9 9 9 14 5 12 3 12v26l-4 15-8 16-9 11-4 5h-2l-2 4-66 66-5 6-86 86-13 10-15 9-15 7-18 6-24 5-10 1h-23l-22-3-21-6-21-9-16-10-13-10-64-64v-2h-2l-7-8-16-16-7-10-8-16-3-12-1-8v-11l3-18 6-15 9-13 9-10 14-10 13-6 13-3 9-1h10l14 2 12 4 13 7 10 8 13 12 3 3v2h2l7 8 39 39v2h2l6 7 6 5 2 1 2-4 53-53 2-3h2l2-4 62-62 1-2h2l2-4h2l2-4 23-23 12-9 14-7 9-3z"/>
<path transform="translate(1159,1035)" d="m0 0h271l20 2 15 5 13 7 11 9 10 12 8 16 4 13 1 7v20l-4 17-5 11-7 12-7 8h-2v2l-13 9-13 6-15 4-9 1h-286l-16-3-14-6-14-10-9-9-7-10-7-14-4-14-1-9v-9l2-14 4-13 8-15 11-13 10-8 12-7 15-5z"/>
<path transform="translate(1161,1447)" d="m0 0h269l20 2 15 5 13 7 11 9 10 12 8 16 4 13 1 7v20l-4 17-5 12-8 12-6 7h-2v2l-13 9-13 6-15 4-9 1h-284l-17-3-15-6-11-7-9-8-9-12-8-16-4-16v-24l5-19 7-14 8-10 8-8 14-9 16-6 11-2z"/>
</svg>
