<?xml version="1.0" encoding="UTF-8"?>
<svg version="1.1" viewBox="0 0 2048 2048" width="512" height="512" xmlns="http://www.w3.org/2000/svg">
<path transform="translate(1716)" d="m0 0h77v1l28 6 19 5 25 9 25 12 18 10 16 11 13 10 13 11 15 14 12 13 11 14 12 17 8 13 10 18 10 22 10 30 6 25 3 13h1v1539l-2 1-5 25-6 23-8 22-9 20-13 23-14 21-13 16-9 10-5 6-8 7-7 7-11 9-13 10-15 10-21 12-23 11-25 9-26 7-30 6h-74l-2-2-36-8-19-6-25-10-22-11-24-15-13-10-11-9-13-12-16-16-9-11-13-17-11-17-10-18-9-19-7-18-8-28-5-26-2-19-1-17v-1474l2-25 4-24 6-24 8-24 9-21 12-22 14-21 9-12 9-11 5-6h2l2-4 15-15 22-18 24-16 21-12 27-12 28-9 22-5zm20 161-21 4-17 6-17 9-14 10-12 11-9 10-9 13-8 14-6 16-4 15-2 15-1 70v1389l1 22 3 19 6 19 8 16 7 11 8 10 9 10h2v2l14 11 15 9 15 7 17 5 19 3h25l17-3 14-4 17-7 17-10 11-9 8-7 7-8 9-12 9-16 6-14 4-14 3-20v-1477l-3-20-5-18-10-21-8-12-11-13-9-9-15-11-18-10-16-6-18-4-7-1z"/>
<path transform="translate(1010,555)" d="m0 0h28l23 2 24 4 24 6 28 10 29 14 17 10 17 12 14 11 12 11 8 7 15 16 11 14 12 17 8 13 10 18 10 22 10 30 6 26 3 21 1 11 1 25v873l-1 45-3 26-5 25-7 24-10 25-8 16-11 20-13 19-13 16-9 10-5 6-8 7-7 7-11 9-13 10-15 10-21 12-23 11-25 9-26 7-30 6h-74l-2-2-36-8-19-6-25-10-22-11-24-15-13-10-11-9-13-12-16-16-9-11-13-17-11-17-10-18-9-19-7-18-8-28-4-20-3-25-1-17v-918l2-25 4-24 4-17 6-20 10-25 8-16 10-18 11-16 12-16 18-20 12-12 22-18 22-15 21-12 19-9 18-7 24-7 24-5 22-3zm-2 162-21 4-17 6-17 9-14 10-12 11-10 11-10 15-8 16-5 14-4 18-1 9-1 54v849l1 22 3 19 6 19 8 16 7 11 8 10 9 10h2v2l14 11 15 9 15 7 17 5 19 3h25l17-3 14-4 17-7 17-10 11-9 5-4 7-8 8-9 11-18 7-15 5-17 3-20v-921l-3-20-5-18-10-21-8-12-11-13-9-9-15-11-18-10-16-6-18-4-7-1z"/>
<path transform="translate(282,1127)" d="m0 0h28l24 2 28 5 25 7 27 10 26 13 18 11 14 10 14 11 12 11 8 7 15 16 11 14 12 17 8 13 10 18 10 22 10 30 6 26 3 21 1 11 1 25v301l-1 45-3 26-5 25-7 24-10 25-8 16-11 20-13 19-13 16-9 10-5 6-8 7-7 7-11 9-13 10-15 10-21 12-23 11-25 9-26 7-30 6h-74l-2-2-36-8-19-6-25-10-22-11-24-15-13-10-11-9-13-12-16-16-9-11-13-17-11-17-10-18-9-19-7-18-8-28-7-34v-400l3-13 6-27 6-20 11-27 10-20 11-18 10-14 10-13 9-10 1-2h2l2-4 13-13 8-7 12-10 17-12 16-10 18-10 20-9 20-7 21-6 20-4 22-3zm-2 162-21 4-17 6-17 9-14 10-13 12-9 10-10 15-8 16-5 14-3 12-2 15-1 34v299l1 20 3 19 6 19 8 16 7 11 8 10 9 10h2v2l14 11 15 9 15 7 17 5 19 3h25l17-3 14-4 17-7 17-10 11-9 5-4 7-8 8-9 11-18 7-15 5-17 3-20v-349l-3-20-5-18-10-21-8-12-9-11-11-11-15-11-16-9-18-7-18-4-7-1z"/>
<path transform="translate(290)" d="m0 0h37v2l6 1 12 5 11 7 10 9 8 9 8 14 5 15 1 7 1 33v39l19 4 29 8 41 14 24 10 12 8 10 9 10 14 7 16 3 13v23l-4 16-8 16-7 9-11 11-15 9-14 5-17 3h-10l-17-3-43-15-23-7-26-6-30-5-22-2h-32l-16 4-14 8-8 7-6 8-8 15-3 13v18l4 14 7 11 9 9 14 9 16 7 16 4 14 2 46 3 27 4 20 5 26 9 29 14 16 10 14 10 14 12 13 12 9 10 11 14 10 15 9 16 7 15 7 19 6 25 2 16v40l-3 21-5 21-6 18-8 18-10 19-7 10-12 16-11 12-16 16-13 10-13 9-17 10-23 11-21 7h-2v30l-1 26-4 17-8 16-8 10-8 8-14 9-11 5-17 4h-22l-13-3-12-5-11-7-12-11-9-12-7-14-4-16-1-13v-46l-12-2-29-7-27-7-41-13-32-12-15-9-15-15-8-12-6-15-2-9-1-9v-9l3-18 6-15 9-13 10-11 13-9 13-6 11-3 7-1h18l14 3 43 15 35 10 25 6 33 6 33 4h22l16-4 14-7 10-8 9-10 8-15 3-12v-16l-3-11-6-12-8-10-12-9-11-6-12-5-17-4-11-1-37-2-28-4-26-6-24-8-25-11-18-10-15-10-13-10-12-11-6-5-7-8-11-12-12-17-8-14-8-16-7-19-5-18-4-24-1-12v-19l2-23 5-25 6-20 6-15 8-17 12-20 14-18 2-3h2l2-4 20-20 17-13 17-11 21-11 21-8 24-7 1-57 3-19 5-12 7-12 9-11 11-9 14-8z"/>
<path transform="translate(2047,252)" d="m0 0"/>
</svg>
