<svg width="133" height="101" viewBox="0 0 133 101" fill="none" xmlns="http://www.w3.org/2000/svg">
<path d="M6.03858 92.3951C6.01301 92.1792 5.90932 92.0116 5.7275 91.8923C5.54568 91.7729 5.32267 91.7133 5.05847 91.7133C4.86528 91.7133 4.69625 91.7445 4.55136 91.807C4.4079 91.8695 4.29568 91.9555 4.21472 92.0648C4.13517 92.1742 4.0954 92.2985 4.0954 92.4377C4.0954 92.5542 4.1231 92.6543 4.17849 92.7381C4.23531 92.8205 4.30776 92.8894 4.39582 92.9448C4.48389 92.9988 4.57622 93.0435 4.67281 93.0791C4.7694 93.1131 4.85818 93.1408 4.93915 93.1621L5.38233 93.2815C5.49597 93.3113 5.62239 93.3525 5.76159 93.405C5.90222 93.4576 6.03645 93.5293 6.16429 93.6202C6.29355 93.7097 6.40008 93.8248 6.48389 93.9654C6.5677 94.106 6.6096 94.2786 6.6096 94.4832C6.6096 94.719 6.54781 94.932 6.42423 95.1224C6.30207 95.3127 6.1231 95.464 5.8873 95.5762C5.65293 95.6884 5.36812 95.7445 5.0329 95.7445C4.7204 95.7445 4.4498 95.6941 4.22111 95.5933C3.99383 95.4924 3.81486 95.3518 3.68418 95.1714C3.55491 94.991 3.48176 94.7815 3.46472 94.5428H4.01017C4.02437 94.7076 4.07977 94.844 4.17636 94.9519C4.27437 95.0585 4.39795 95.138 4.5471 95.1906C4.69767 95.2417 4.8596 95.2673 5.0329 95.2673C5.2346 95.2673 5.41571 95.2346 5.57622 95.1693C5.73673 95.1025 5.86386 95.0102 5.95761 94.8923C6.05136 94.7729 6.09824 94.6337 6.09824 94.4746C6.09824 94.3298 6.05776 94.2119 5.97679 94.121C5.89582 94.03 5.78929 93.9562 5.65719 93.8994C5.52508 93.8425 5.38233 93.7928 5.22892 93.7502L4.69199 93.5968C4.35108 93.4988 4.08119 93.3589 3.88233 93.1771C3.68347 92.9952 3.58403 92.7573 3.58403 92.4633C3.58403 92.219 3.65008 92.0059 3.78219 91.8241C3.91571 91.6408 4.09469 91.4988 4.31912 91.3979C4.54497 91.2957 4.7971 91.2445 5.07551 91.2445C5.35676 91.2445 5.60676 91.295 5.82551 91.3958C6.04426 91.4952 6.21756 91.6316 6.3454 91.8049C6.47466 91.9782 6.54284 92.1749 6.54994 92.3951H6.03858ZM8.78236 95.736C8.46702 95.736 8.19501 95.6664 7.96631 95.5272C7.73904 95.3866 7.56361 95.1906 7.44004 94.9391C7.31788 94.6863 7.2568 94.3923 7.2568 94.057C7.2568 93.7218 7.31788 93.4264 7.44004 93.1707C7.56361 92.9136 7.73549 92.7133 7.95566 92.5698C8.17725 92.4249 8.43577 92.3525 8.73123 92.3525C8.90168 92.3525 9.07001 92.3809 9.2362 92.4377C9.40239 92.4945 9.55367 92.5869 9.69004 92.7147C9.8264 92.8411 9.93506 93.0087 10.016 93.2175C10.097 93.4264 10.1375 93.6835 10.1375 93.9889V94.2019H7.61475V93.7673H9.62611C9.62611 93.5826 9.58918 93.4178 9.51532 93.2729C9.44288 93.1281 9.33918 93.0137 9.20424 92.9299C9.07072 92.8461 8.91305 92.8042 8.73123 92.8042C8.53094 92.8042 8.35765 92.8539 8.21134 92.9533C8.06646 93.0514 7.95495 93.1792 7.87682 93.3369C7.7987 93.4945 7.75964 93.6636 7.75964 93.844V94.1337C7.75964 94.3809 7.80225 94.5904 7.88748 94.7623C7.97413 94.9327 8.09415 95.0627 8.24756 95.1522C8.40097 95.2403 8.57924 95.2843 8.78236 95.2843C8.91447 95.2843 9.03379 95.2658 9.14032 95.2289C9.24827 95.1906 9.34131 95.1337 9.41944 95.0585C9.49756 94.9818 9.55793 94.8866 9.60055 94.7729L10.0863 94.9093C10.0352 95.0741 9.94927 95.219 9.82853 95.344C9.70779 95.4675 9.55864 95.5641 9.38109 95.6337C9.20353 95.7019 9.00396 95.736 8.78236 95.736ZM12.2234 96.9633C11.9805 96.9633 11.7717 96.932 11.597 96.8695C11.4223 96.8085 11.2767 96.7275 11.1602 96.6266C11.0451 96.5272 10.9535 96.4207 10.8853 96.307L11.2859 96.0258C11.3314 96.0854 11.3889 96.1536 11.4585 96.2303C11.5281 96.3085 11.6233 96.3759 11.744 96.4327C11.8662 96.491 12.026 96.5201 12.2234 96.5201C12.4876 96.5201 12.7057 96.4562 12.8775 96.3283C13.0494 96.2005 13.1353 96.0002 13.1353 95.7275V95.0627H13.0927C13.0558 95.1224 13.0032 95.1962 12.9351 95.2843C12.8683 95.371 12.7717 95.4484 12.6453 95.5166C12.5203 95.5833 12.3513 95.6167 12.1382 95.6167C11.874 95.6167 11.6368 95.5542 11.4265 95.4292C11.2177 95.3042 11.0523 95.1224 10.9301 94.8837C10.8094 94.6451 10.749 94.3553 10.749 94.0144C10.749 93.6792 10.8079 93.3873 10.9258 93.1387C11.0437 92.8887 11.2078 92.6955 11.418 92.5592C11.6282 92.4214 11.8711 92.3525 12.1467 92.3525C12.3598 92.3525 12.5288 92.388 12.6538 92.459C12.7802 92.5286 12.8768 92.6082 12.9436 92.6977C13.0118 92.7857 13.0643 92.8582 13.1013 92.915H13.1524V92.3951H13.6382V95.7616C13.6382 96.0428 13.5743 96.2715 13.4464 96.4477C13.32 96.6252 13.1496 96.7552 12.9351 96.8376C12.722 96.9214 12.4848 96.9633 12.2234 96.9633ZM12.2064 95.165C12.4081 95.165 12.5785 95.1188 12.7177 95.0265C12.8569 94.9342 12.9628 94.8014 13.0352 94.6281C13.1076 94.4548 13.1439 94.2474 13.1439 94.0059C13.1439 93.7701 13.1084 93.562 13.0373 93.3816C12.9663 93.2012 12.8612 93.0599 12.722 92.9576C12.5828 92.8553 12.4109 92.8042 12.2064 92.8042C11.9933 92.8042 11.8157 92.8582 11.6737 92.9661C11.5331 93.0741 11.4273 93.219 11.3562 93.4008C11.2866 93.5826 11.2518 93.7843 11.2518 94.0059C11.2518 94.2332 11.2873 94.4342 11.3584 94.6089C11.4308 94.7822 11.5373 94.9185 11.678 95.018C11.82 95.116 11.9961 95.165 12.2064 95.165Z" fill="#828898"/>
<path d="M7.22803 35.5914H10.3361C12.2531 35.5914 14.0915 36.3415 15.4471 37.6767C16.8026 39.0119 17.5641 40.8228 17.5641 42.711V81.4417C17.5641 83.3299 16.8026 85.1408 15.4471 86.476C14.0915 87.8112 12.2531 88.5613 10.3361 88.5613H7.22803C5.31103 88.5613 3.47256 87.8112 2.11704 86.476C0.761522 85.1408 0 83.3299 0 81.4417V42.711C0 40.8228 0.761522 39.0119 2.11704 37.6767C3.47256 36.3415 5.31103 35.5914 7.22803 35.5914Z" fill="#90BFBD"/>
<path d="M31.7656 92.7624V92.2936H35.0383V92.7624H33.6662V96.6573H33.1378V92.7624H31.7656ZM36.6832 96.7255C36.3679 96.7255 36.0959 96.6559 35.8672 96.5166C35.6399 96.376 35.4645 96.18 35.3409 95.9286C35.2187 95.6757 35.1577 95.3817 35.1577 95.0465C35.1577 94.7112 35.2187 94.4158 35.3409 94.1601C35.4645 93.903 35.6363 93.7027 35.8565 93.5593C36.0781 93.4144 36.3366 93.3419 36.6321 93.3419C36.8025 93.3419 36.9709 93.3703 37.1371 93.4272C37.3033 93.484 37.4545 93.5763 37.5909 93.7041C37.7273 93.8306 37.8359 93.9982 37.9169 94.207C37.9979 94.4158 38.0383 94.6729 38.0383 94.9783V95.1914H35.5156V94.7567H37.527C37.527 94.572 37.49 94.4073 37.4162 94.2624C37.3437 94.1175 37.24 94.0032 37.1051 93.9193C36.9716 93.8355 36.8139 93.7936 36.6321 93.7936C36.4318 93.7936 36.2585 93.8434 36.1122 93.9428C35.9673 94.0408 35.8558 94.1686 35.7777 94.3263C35.6996 94.484 35.6605 94.653 35.6605 94.8334V95.1232C35.6605 95.3703 35.7031 95.5799 35.7883 95.7517C35.875 95.9222 35.995 96.0522 36.1484 96.1416C36.3018 96.2297 36.4801 96.2737 36.6832 96.2737C36.8153 96.2737 36.9346 96.2553 37.0412 96.2184C37.1491 96.18 37.2422 96.1232 37.3203 96.0479C37.3984 95.9712 37.4588 95.876 37.5014 95.7624L37.9872 95.8987C37.9361 96.0635 37.8501 96.2084 37.7294 96.3334C37.6086 96.457 37.4595 96.5536 37.2819 96.6232C37.1044 96.6914 36.9048 96.7255 36.6832 96.7255ZM38.8033 96.6573V93.3845H39.289V93.8789H39.3231C39.3828 93.7169 39.4908 93.5855 39.647 93.4847C39.8033 93.3838 39.9794 93.3334 40.1754 93.3334C40.2123 93.3334 40.2585 93.3341 40.3139 93.3355C40.3693 93.337 40.4112 93.3391 40.4396 93.3419V93.8533C40.4226 93.849 40.3835 93.8426 40.3224 93.8341C40.2628 93.8242 40.1996 93.8192 40.1328 93.8192C39.9737 93.8192 39.8317 93.8526 39.7067 93.9193C39.5831 93.9847 39.4851 94.0756 39.4126 94.1921C39.3416 94.3071 39.3061 94.4385 39.3061 94.5862V96.6573H38.8033Z" fill="#828898"/>
<path d="M34.7462 0.278168H37.647C39.4362 0.278168 41.1521 1.02827 42.4173 2.36345C43.6824 3.69864 44.3932 5.50954 44.3932 7.39777V81.4417C44.3932 83.3299 43.6824 85.1408 42.4173 86.476C41.1521 87.8112 39.4362 88.5613 37.647 88.5613H34.7462C32.957 88.5613 31.2411 87.8112 29.9759 86.476C28.7108 85.1408 28 83.3299 28 81.4417V7.39777C28 5.50954 28.7108 3.69864 29.9759 2.36345C31.2411 1.02827 32.957 0.278168 34.7462 0.278168Z" fill="#91C2C0"/>
<path d="M60.006 95.2936H60.5855L61.0713 95.9328L61.1992 96.1033L61.9236 97.0664H61.3441L60.8668 96.4272L60.7475 96.2652L60.006 95.2936ZM62.1026 94.4755C62.1026 94.9357 62.0195 95.3334 61.8533 95.6686C61.6871 96.0039 61.4591 96.2624 61.1694 96.4442C60.8796 96.626 60.5486 96.7169 60.1765 96.7169C59.8043 96.7169 59.4733 96.626 59.1836 96.4442C58.8938 96.2624 58.6658 96.0039 58.4996 95.6686C58.3334 95.3334 58.2503 94.9357 58.2503 94.4755C58.2503 94.0152 58.3334 93.6175 58.4996 93.2823C58.6658 92.947 58.8938 92.6885 59.1836 92.5067C59.4733 92.3249 59.8043 92.234 60.1765 92.234C60.5486 92.234 60.8796 92.3249 61.1694 92.5067C61.4591 92.6885 61.6871 92.947 61.8533 93.2823C62.0195 93.6175 62.1026 94.0152 62.1026 94.4755ZM61.5912 94.4755C61.5912 94.0976 61.528 93.7787 61.4016 93.5188C61.2766 93.2588 61.1068 93.0621 60.8924 92.9286C60.6793 92.7951 60.4407 92.7283 60.1765 92.7283C59.9122 92.7283 59.6729 92.7951 59.4584 92.9286C59.2453 93.0621 59.0756 93.2588 58.9492 93.5188C58.8242 93.7787 58.7617 94.0976 58.7617 94.4755C58.7617 94.8533 58.8242 95.1722 58.9492 95.4321C59.0756 95.6921 59.2453 95.8888 59.4584 96.0223C59.6729 96.1559 59.9122 96.2226 60.1765 96.2226C60.4407 96.2226 60.6793 96.1559 60.8924 96.0223C61.1068 95.8888 61.2766 95.6921 61.4016 95.4321C61.528 95.1722 61.5912 94.8533 61.5912 94.4755ZM64.9854 95.3192V93.3845H65.4882V96.6573H64.9854V96.1033H64.9513C64.8746 96.2695 64.7553 96.4108 64.5934 96.5273C64.4314 96.6424 64.2269 96.6999 63.9797 96.6999C63.7752 96.6999 63.5934 96.6551 63.4343 96.5657C63.2752 96.4747 63.1502 96.3384 63.0593 96.1566C62.9684 95.9733 62.9229 95.7425 62.9229 95.4641V93.3845H63.4257V95.43C63.4257 95.6686 63.4925 95.859 63.626 96.001C63.761 96.1431 63.9328 96.2141 64.1417 96.2141C64.2667 96.2141 64.3938 96.1821 64.523 96.1182C64.6537 96.0543 64.7631 95.9563 64.8512 95.8242C64.9407 95.6921 64.9854 95.5237 64.9854 95.3192ZM67.3723 96.734C67.1649 96.734 66.9767 96.6949 66.8077 96.6168C66.6386 96.5372 66.5044 96.4229 66.405 96.2737C66.3055 96.1232 66.2558 95.9414 66.2558 95.7283C66.2558 95.5408 66.2928 95.3888 66.3666 95.2723C66.4405 95.1544 66.5392 95.0621 66.6628 94.9953C66.7864 94.9286 66.9227 94.8789 67.0719 94.8462C67.2224 94.8121 67.3737 94.7851 67.5257 94.7652C67.7246 94.7397 67.8858 94.7205 68.0094 94.7077C68.1344 94.6935 68.2253 94.6701 68.2821 94.6374C68.3403 94.6047 68.3695 94.5479 68.3695 94.4669V94.4499C68.3695 94.2397 68.3119 94.0763 68.1969 93.9598C68.0832 93.8434 67.9106 93.7851 67.6791 93.7851C67.4391 93.7851 67.2508 93.8377 67.1145 93.9428C66.9781 94.0479 66.8822 94.1601 66.8268 94.2794L66.3496 94.109C66.4348 93.9101 66.5484 93.7553 66.6905 93.6445C66.8339 93.5323 66.9902 93.4541 67.1592 93.4101C67.3297 93.3647 67.4973 93.3419 67.6621 93.3419C67.7672 93.3419 67.8879 93.3547 68.0243 93.3803C68.1621 93.4044 68.2949 93.4549 68.4227 93.5316C68.552 93.6083 68.6592 93.724 68.7445 93.8789C68.8297 94.0337 68.8723 94.2411 68.8723 94.501V96.6573H68.3695V96.2141H68.3439C68.3098 96.2851 68.253 96.3611 68.1734 96.4421C68.0939 96.523 67.9881 96.5919 67.856 96.6487C67.7239 96.7056 67.5626 96.734 67.3723 96.734ZM67.449 96.2823C67.6479 96.2823 67.8155 96.2432 67.9518 96.1651C68.0896 96.087 68.1933 95.9861 68.2629 95.8625C68.3339 95.7389 68.3695 95.609 68.3695 95.4726V95.0124C68.3481 95.038 68.3013 95.0614 68.2288 95.0827C68.1578 95.1026 68.0754 95.1203 67.9817 95.136C67.8893 95.1502 67.7991 95.163 67.7111 95.1743C67.6244 95.1843 67.5541 95.1928 67.5001 95.1999C67.3695 95.2169 67.2473 95.2446 67.1337 95.283C67.0214 95.3199 66.9305 95.376 66.8609 95.4513C66.7928 95.5252 66.7587 95.626 66.7587 95.7539C66.7587 95.9286 66.8233 96.0607 66.9526 96.1502C67.0832 96.2382 67.2487 96.2823 67.449 96.2823Z" fill="#828898"/>
<path d="M62.228 21.4661H65.3361C67.2531 21.4661 69.0915 22.2262 70.4471 23.5792C71.8026 24.9322 72.5641 26.7672 72.5641 28.6807V81.3467C72.5641 83.2602 71.8026 85.0952 70.4471 86.4482C69.0915 87.8012 67.2531 88.5613 65.3361 88.5613H62.228C60.311 88.5613 58.4726 87.8012 57.117 86.4482C55.7615 85.0952 55 83.2602 55 81.3467V28.6807C55 26.7672 55.7615 24.9322 57.117 23.5792C58.4726 22.2262 60.311 21.4661 62.228 21.4661Z" fill="#91C2C0"/>
<path d="M88.9845 95.2936H89.5641L90.0499 95.9328L90.1777 96.1033L90.9021 97.0664H90.3226L89.8453 96.4272L89.726 96.2652L88.9845 95.2936ZM91.0811 94.4755C91.0811 94.9357 90.998 95.3334 90.8318 95.6686C90.6656 96.0039 90.4376 96.2624 90.1479 96.4442C89.8581 96.626 89.5271 96.7169 89.155 96.7169C88.7828 96.7169 88.4518 96.626 88.1621 96.4442C87.8723 96.2624 87.6443 96.0039 87.4781 95.6686C87.3119 95.3334 87.2288 94.9357 87.2288 94.4755C87.2288 94.0152 87.3119 93.6175 87.4781 93.2823C87.6443 92.947 87.8723 92.6885 88.1621 92.5067C88.4518 92.3249 88.7828 92.234 89.155 92.234C89.5271 92.234 89.8581 92.3249 90.1479 92.5067C90.4376 92.6885 90.6656 92.947 90.8318 93.2823C90.998 93.6175 91.0811 94.0152 91.0811 94.4755ZM90.5697 94.4755C90.5697 94.0976 90.5065 93.7787 90.3801 93.5188C90.2551 93.2588 90.0854 93.0621 89.8709 92.9286C89.6578 92.7951 89.4192 92.7283 89.155 92.7283C88.8908 92.7283 88.6514 92.7951 88.4369 92.9286C88.2239 93.0621 88.0541 93.2588 87.9277 93.5188C87.8027 93.7787 87.7402 94.0976 87.7402 94.4755C87.7402 94.8533 87.8027 95.1722 87.9277 95.4321C88.0541 95.6921 88.2239 95.8888 88.4369 96.0223C88.6514 96.1558 88.8908 96.2226 89.155 96.2226C89.4192 96.2226 89.6578 96.1558 89.8709 96.0223C90.0854 95.8888 90.2551 95.6921 90.3801 95.4321C90.5065 95.1722 90.5697 94.8533 90.5697 94.4755ZM93.9639 95.3192V93.3845H94.4668V96.6573H93.9639V96.1033H93.9298C93.8531 96.2695 93.7338 96.4108 93.5719 96.5273C93.4099 96.6424 93.2054 96.6999 92.9582 96.6999C92.7537 96.6999 92.5719 96.6551 92.4128 96.5656C92.2537 96.4747 92.1287 96.3384 92.0378 96.1566C91.9469 95.9733 91.9014 95.7425 91.9014 95.4641V93.3845H92.4043V95.43C92.4043 95.6686 92.471 95.859 92.6045 96.001C92.7395 96.1431 92.9114 96.2141 93.1202 96.2141C93.2452 96.2141 93.3723 96.1821 93.5016 96.1182C93.6322 96.0543 93.7416 95.9563 93.8297 95.8242C93.9192 95.6921 93.9639 95.5237 93.9639 95.3192ZM95.3877 96.6573V93.3845H95.8906V96.6573H95.3877ZM95.6434 92.8391C95.5454 92.8391 95.4609 92.8057 95.3899 92.7389C95.3203 92.6722 95.2855 92.5919 95.2855 92.4982C95.2855 92.4044 95.3203 92.3242 95.3899 92.2574C95.4609 92.1906 95.5454 92.1573 95.6434 92.1573C95.7414 92.1573 95.8252 92.1906 95.8948 92.2574C95.9659 92.3242 96.0014 92.4044 96.0014 92.4982C96.0014 92.5919 95.9659 92.6722 95.8948 92.7389C95.8252 92.8057 95.7414 92.8391 95.6434 92.8391Z" fill="#828898"/>
<path d="M89.7462 53.248H92.647C94.4362 53.248 96.1521 53.9981 97.4173 55.3333C98.6824 56.6685 99.3932 58.4794 99.3932 60.3676V81.4417C99.3932 83.3299 98.6824 85.1408 97.4173 86.476C96.1521 87.8112 94.4362 88.5613 92.647 88.5613H89.7462C87.957 88.5613 86.2411 87.8112 84.9759 86.476C83.7108 85.1408 83 83.3299 83 81.4417V60.3676C83 58.4794 83.7108 56.6685 84.9759 55.3333C86.2411 53.9981 87.957 53.248 89.7462 53.248Z" fill="#92C0BE"/>
<path d="M116.023 93.3845C115.998 93.1686 115.894 93.001 115.712 92.8817C115.53 92.7624 115.307 92.7027 115.043 92.7027C114.85 92.7027 114.681 92.734 114.536 92.7965C114.392 92.859 114.28 92.9449 114.199 93.0543C114.12 93.1637 114.08 93.2879 114.08 93.4272C114.08 93.5436 114.108 93.6438 114.163 93.7276C114.22 93.81 114.292 93.8789 114.38 93.9343C114.468 93.9882 114.561 94.033 114.657 94.0685C114.754 94.1026 114.843 94.1303 114.924 94.1516L115.367 94.2709C115.48 94.3007 115.607 94.3419 115.746 94.3945C115.887 94.447 116.021 94.5188 116.149 94.6097C116.278 94.6992 116.385 94.8142 116.468 94.9548C116.552 95.0955 116.594 95.2681 116.594 95.4726C116.594 95.7084 116.532 95.9215 116.409 96.1118C116.287 96.3022 116.108 96.4534 115.872 96.5656C115.637 96.6779 115.353 96.734 115.017 96.734C114.705 96.734 114.434 96.6835 114.206 96.5827C113.978 96.4818 113.799 96.3412 113.669 96.1608C113.539 95.9804 113.466 95.7709 113.449 95.5323H113.995C114.009 95.697 114.064 95.8334 114.161 95.9414C114.259 96.0479 114.382 96.1274 114.532 96.18C114.682 96.2311 114.844 96.2567 115.017 96.2567C115.219 96.2567 115.4 96.224 115.561 96.1587C115.721 96.0919 115.848 95.9996 115.942 95.8817C116.036 95.7624 116.083 95.6232 116.083 95.4641C116.083 95.3192 116.042 95.2013 115.961 95.1104C115.88 95.0195 115.774 94.9456 115.642 94.8888C115.51 94.832 115.367 94.7823 115.213 94.7397L114.676 94.5862C114.336 94.4882 114.066 94.3483 113.867 94.1665C113.668 93.9847 113.569 93.7468 113.569 93.4527C113.569 93.2084 113.635 92.9953 113.767 92.8135C113.9 92.6303 114.079 92.4882 114.304 92.3874C114.529 92.2851 114.782 92.234 115.06 92.234C115.341 92.234 115.591 92.2844 115.81 92.3852C116.029 92.4847 116.202 92.621 116.33 92.7943C116.459 92.9676 116.527 93.1644 116.534 93.3845H116.023ZM118.767 96.7254C118.452 96.7254 118.18 96.6558 117.951 96.5166C117.724 96.376 117.548 96.18 117.425 95.9286C117.302 95.6757 117.241 95.3817 117.241 95.0465C117.241 94.7112 117.302 94.4158 117.425 94.1601C117.548 93.903 117.72 93.7027 117.94 93.5593C118.162 93.4144 118.42 93.3419 118.716 93.3419C118.886 93.3419 119.055 93.3703 119.221 93.4272C119.387 93.484 119.538 93.5763 119.675 93.7041C119.811 93.8306 119.92 93.9982 120.001 94.207C120.081 94.4158 120.122 94.6729 120.122 94.9783V95.1914H117.599V94.7567H119.611C119.611 94.572 119.574 94.4073 119.5 94.2624C119.427 94.1175 119.324 94.0031 119.189 93.9193C119.055 93.8355 118.898 93.7936 118.716 93.7936C118.515 93.7936 118.342 93.8433 118.196 93.9428C118.051 94.0408 117.939 94.1686 117.861 94.3263C117.783 94.484 117.744 94.653 117.744 94.8334V95.1232C117.744 95.3703 117.787 95.5798 117.872 95.7517C117.959 95.9222 118.079 96.0522 118.232 96.1416C118.385 96.2297 118.564 96.2737 118.767 96.2737C118.899 96.2737 119.018 96.2553 119.125 96.2183C119.233 96.18 119.326 96.1232 119.404 96.0479C119.482 95.9712 119.542 95.876 119.585 95.7624L120.071 95.8987C120.02 96.0635 119.934 96.2084 119.813 96.3334C119.692 96.457 119.543 96.5536 119.366 96.6232C119.188 96.6914 118.988 96.7254 118.767 96.7254ZM121.174 93.3845L121.958 94.7226L122.742 93.3845H123.322L122.265 95.0209L123.322 96.6573H122.742L121.958 95.3874L121.174 96.6573H120.594L121.634 95.0209L120.594 93.3845H121.174ZM125.463 93.3845V93.8107H123.767V93.3845H125.463ZM124.261 92.6004H124.764V95.7198C124.764 95.8618 124.784 95.9683 124.825 96.0394C124.868 96.109 124.922 96.1558 124.987 96.18C125.054 96.2027 125.124 96.2141 125.198 96.2141C125.254 96.2141 125.299 96.2112 125.335 96.2056C125.37 96.1985 125.399 96.1928 125.42 96.1885L125.522 96.6402C125.488 96.653 125.441 96.6658 125.379 96.6786C125.318 96.6928 125.241 96.6999 125.147 96.6999C125.005 96.6999 124.866 96.6693 124.73 96.6083C124.595 96.5472 124.482 96.4541 124.393 96.3291C124.305 96.2041 124.261 96.0465 124.261 95.8561V92.6004ZM127.182 96.734C126.975 96.734 126.786 96.6949 126.617 96.6168C126.448 96.5372 126.314 96.4229 126.215 96.2737C126.115 96.1232 126.066 95.9414 126.066 95.7283C126.066 95.5408 126.102 95.3888 126.176 95.2723C126.25 95.1544 126.349 95.0621 126.472 94.9953C126.596 94.9286 126.732 94.8789 126.882 94.8462C127.032 94.8121 127.183 94.7851 127.335 94.7652C127.534 94.7397 127.695 94.7205 127.819 94.7077C127.944 94.6935 128.035 94.67 128.092 94.6374C128.15 94.6047 128.179 94.5479 128.179 94.4669V94.4499C128.179 94.2397 128.122 94.0763 128.007 93.9598C127.893 93.8433 127.72 93.7851 127.489 93.7851C127.249 93.7851 127.061 93.8377 126.924 93.9428C126.788 94.0479 126.692 94.1601 126.637 94.2794L126.159 94.109C126.244 93.9101 126.358 93.7553 126.5 93.6445C126.644 93.5323 126.8 93.4541 126.969 93.4101C127.139 93.3647 127.307 93.3419 127.472 93.3419C127.577 93.3419 127.698 93.3547 127.834 93.3803C127.972 93.4044 128.105 93.4548 128.232 93.5316C128.362 93.6083 128.469 93.724 128.554 93.8789C128.639 94.0337 128.682 94.2411 128.682 94.501V96.6573H128.179V96.2141H128.154C128.119 96.2851 128.063 96.3611 127.983 96.4421C127.904 96.523 127.798 96.5919 127.666 96.6487C127.534 96.7056 127.372 96.734 127.182 96.734ZM127.259 96.2823C127.458 96.2823 127.625 96.2432 127.762 96.1651C127.899 96.087 128.003 95.9861 128.073 95.8625C128.144 95.7389 128.179 95.609 128.179 95.4726V95.0124C128.158 95.0379 128.111 95.0614 128.039 95.0827C127.968 95.1026 127.885 95.1203 127.791 95.136C127.699 95.1502 127.609 95.1629 127.521 95.1743C127.434 95.1843 127.364 95.1928 127.31 95.1999C127.179 95.2169 127.057 95.2446 126.943 95.283C126.831 95.3199 126.74 95.376 126.671 95.4513C126.602 95.5252 126.568 95.626 126.568 95.7539C126.568 95.9286 126.633 96.0607 126.762 96.1502C126.893 96.2382 127.058 96.2823 127.259 96.2823Z" fill="#828898"/>
<path d="M119.228 30.883H122.336C124.253 30.883 126.092 31.6369 127.447 32.979C128.803 34.321 129.564 36.1412 129.564 38.0391V81.4052C129.564 83.3031 128.803 85.1233 127.447 86.4653C126.092 87.8073 124.253 88.5613 122.336 88.5613H119.228C117.311 88.5613 115.473 87.8073 114.117 86.4653C112.762 85.1233 112 83.3031 112 81.4052V38.0391C112 36.1412 112.762 34.321 114.117 32.979C115.473 31.6369 117.311 30.883 119.228 30.883Z" fill="#92C0BE"/>
</svg>
